Coordinates
version=1
nRows=7
nColumns=40
inDegrees=yes

Units are S.I. units (second, meters, Newtons, ...)
Angles are in degrees.

endheader
time	pelvis_tilt	pelvis_list	pelvis_rotation	pelvis_tx	pelvis_ty	pelvis_tz	hip_flexion_r	hip_adduction_r	hip_rotation_r	knee_angle_r	knee_angle_r_beta	ankle_angle_r	subtalar_angle_r	mtp_angle_r	hip_flexion_l	hip_adduction_l	hip_rotation_l	knee_angle_l	knee_angle_l_beta	ankle_angle_l	subtalar_angle_l	mtp_angle_l	lumbar_extension	lumbar_bending	lumbar_rotation	arm_flex_r	arm_add_r	arm_rot_r	elbow_flex_r	pro_sup_r	wrist_flex_r	wrist_dev_r	arm_flex_l	arm_add_l	arm_rot_l	elbow_flex_l	pro_sup_l	wrist_flex_l	wrist_dev_l
      0.64000000	     -1.27974852	      3.10962696	      0.72755194	      0.13500072	      0.95084525	     -1.08845526	     28.54202857	     -9.73053564	    -20.32856029	    -35.49814548	     -0.61955952	      3.87192524	    -10.19831596	     14.63083746	     -6.67598444	     -2.55355828	     10.51549337	     -7.80251421	     -0.13617956	      5.55729231	     -1.69614951	    -12.35372513	     -2.26375272	     -0.24181345	     -8.71667733	     -4.62410144	    -10.85392787	    -13.94378817	     17.61125431	     89.95437384	      0.00000000	      0.00000000	     11.25872791	     19.42170285	      5.91687633	     30.60919706	     89.95437384	      0.00000000	      0.00000000
      0.65000000	     -1.42845705	      2.93790834	      1.06805563	      0.14823389	      0.94886436	     -1.08818241	     28.77851935	     -9.40074736	    -21.56130470	    -31.73814053	     -0.55393505	      3.33976169	     -9.29747470	     14.71972546	     -7.50564549	     -2.25800261	     10.79616697	     -7.62944421	     -0.13315892	      5.80952723	     -2.29317296	    -12.70499655	     -2.14954542	     -0.03096071	     -9.35518989	     -5.10390524	    -10.89346226	    -14.41563187	     17.05637243	     89.95437384	      0.00000000	      0.00000000	     12.12599618	     20.08144813	      6.66783404	     31.55232466	     89.95437384	      0.00000000	      0.00000000
      0.66000000	     -1.46904106	      2.73065116	      1.19040930	      0.16173931	      0.94691743	     -1.08737762	     28.87300130	     -8.89691537	    -22.66150974	    -28.01717857	     -0.48899201	      2.59198575	     -8.49541234	     14.72163081	     -8.47248744	     -1.87585454	     11.63284459	     -7.42227967	     -0.12954322	      5.87678866	     -3.52948946	    -13.25057062	     -2.15294493	      0.22241573	     -9.70157591	     -5.63411385	    -10.95389168	    -15.02034330	     16.58143686	     89.95437384	      0.00000000	      0.00000000	     13.00062788	     20.66824088	      7.36057734	     32.47694629	     89.95437384	      0.00000000	      0.00000000
      0.67000000	     -1.53940967	      2.49666205	      1.28037222	      0.17525616	      0.94476783	     -1.08619746	     28.97684018	     -8.32759471	    -23.84896157	    -24.48086505	     -0.42727170	      1.90300206	     -7.56415314	     14.13846922	     -9.19663958	     -1.31440347	     13.18300798	     -7.64469421	     -0.13342508	      5.68391351	     -5.86802904	    -14.48433456	     -2.10538061	      0.47051328	    -10.02238270	     -6.13756140	    -10.97646601	    -15.78978868	     16.16091043	     89.95437384	      0.00000000	      0.00000000	     13.73571264	     21.33619059	      7.84259979	     33.51372210	     89.95437384	      0.00000000	      0.00000000
      0.68000000	     -1.94504126	      2.86038115	      1.28634134	      0.18843176	      0.94200291	     -1.08516475	     29.78614899	     -8.43050762	    -24.57890004	    -21.82664600	     -0.38094684	      1.69598290	     -6.66851173	     14.17505061	     -9.68903805	     -1.63494441	     13.37788898	     -7.59666024	     -0.13258673	      5.75993178	     -5.89989777	    -14.53837972	     -1.69785641	      0.04797566	    -10.22227171	     -6.72891275	    -11.00465595	    -16.02258661	     15.77920454	     89.95437384	      0.00000000	      0.00000000	     14.47603148	     21.99370428	      8.28881636	     34.40950639	     89.95437384	      0.00000000	      0.00000000
      0.69000000	     -1.84755734	      2.49629607	      1.34170320	      0.20192417	      0.94036854	     -1.08374496	     29.64418191	     -7.76622363	    -25.80880709	    -18.90666411	     -0.32998354	      0.89592031	     -4.50766071	     14.07781093	    -10.63454396	     -1.04204102	     13.72181529	     -7.78421210	     -0.13586013	      5.85146423	     -6.11287301	    -14.81747357	     -1.90042051	      0.46482190	    -10.52886617	     -6.94171089	    -11.05547282	    -16.81594298	     15.08645939	     89.95437384	      0.00000000	      0.00000000	     15.05689601	     22.49571576	      9.11123978	     35.56028198	     89.95437384	      0.00000000	      0.00000000
      0.70000000	     -1.56235113	      2.20889403	      1.42672555	      0.21601648	      0.93884079	     -1.08217328	     29.38827628	     -7.36601617	    -27.45382575	    -16.86131244	     -0.29428542	      0.47963953	     -1.39246268	     12.21378158	    -11.69006991	     -0.35348901	     14.80559395	     -8.19747360	     -0.14307290	      5.43631792	     -7.93937769	    -15.75738509	     -2.24694635	      0.78949239	    -10.70817800	     -7.29582745	    -11.01709195	    -18.47993045	     14.56019885	     89.95437384	      0.00000000	      0.00000000	     15.75071970	     22.95114147	      9.63434964	     36.51493940	     89.95437384	      0.00000000	      0.00000000
